<?xml version="1.0" encoding="UTF-8"?>
<svg xmlns="http://www.w3.org/2000/svg" xmlns:xlink="http://www.w3.org/1999/xlink" version="1.1" viewBox="0 0 600 600">
<g>
<path fill="#1565C0" d="M300,50 C160,50 50,160 50,300 C50,440 160,550 300,550 C440,550 550,440 550,300 C550,160 440,50 300,50zM300,520 C177,520 80,423 80,300 C80,177 177,80 300,80 C423,80 520,177 520,300 C520,423 423,520 300,520z"/>
<path fill="#1565C0" d="M300,110 C195,110 110,195 110,300 C110,405 195,490 300,490 C405,490 490,405 490,300 C490,195 405,110 300,110zM460,300 C460,388 388,460 300,460 C212,460 140,388 140,300 C140,212 212,140 300,140 C388,140 460,212 460,300z"/>
<path fill="#1565C0" d="M300,200 L300,120 L200,220 L300,200z"/>
<path fill="#1565C0" d="M300,200 L300,120 L400,220 L300,200z"/>
<path fill="#1565C0" d="M300,480 L300,400 L400,380 L300,480z"/>
<path fill="#1565C0" d="M300,480 L300,400 L200,380 L300,480z"/>
<path fill="#1565C0" d="M175,345 L125,325 L145,265 L175,345z"/>
<path fill="#1565C0" d="M425,345 L475,325 L455,265 L425,345z"/>
<path fill="#1565C0" d="M300,230 C280,230 260,240 260,260 L260,280 C260,300 280,340 300,340 C320,340 340,300 340,280 L340,260 C340,240 320,230 300,230z"/>
<path fill="#1565C0" d="M300,310 C290,310 280,300 280,290 L280,270 C280,260 290,250 300,250 C310,250 320,260 320,270 L320,290 C320,300 310,310 300,310z" fill-opacity="0"/>
<path fill="#1565C0" d="M240,300 L220,300 L180,340 L230,330 L240,300z"/>
<path fill="#1565C0" d="M230,270 L180,260 L220,220 L240,260 L230,270z"/>
<path fill="#1565C0" d="M360,300 L380,300 L420,340 L370,330 L360,300z"/>
<path fill="#1565C0" d="M370,270 L420,260 L380,220 L360,260 L370,270z"/>
</g>
<text x="50" y="580" fill="#1565C0" font-family="Arial" font-size="48" font-weight="bold">Impex Vina</text>
</svg>